<svg xmlns="http://www.w3.org/2000/svg" viewBox="0 0 64 64" width="64" height="64" role="img" aria-label="Veritag">
  <defs><linearGradient id="vt" x1="18.0" y1="2.0" x2="46.0" y2="62.0" gradientUnits="userSpaceOnUse"><stop offset="0.0" stop-color="#7C5CFF"/><stop offset="0.45" stop-color="#9A82FF"/><stop offset="1.0" stop-color="#D8B46A"/></linearGradient></defs>
  <g fill="url(#vt)">
    <path d="M13.83 25.94L16.28 21.65L19.41 18.40L23.18 16.03L27.33 14.65L31.63 14.32L35.82 15.03L39.64 16.69L42.90 19.19L45.43 22.34L47.08 25.95L47.81 29.78L47.60 33.60L46.49 37.19L44.59 40.36L42.03 42.92L38.98 44.75L35.65 45.78L32.24 45.97L28.95 45.34L25.97 43.97L23.47 41.96L21.56 39.46L20.34 36.64L19.86 33.68L20.09 30.75L21.00 28.03L22.51 25.67L24.49 23.80L26.81 22.49L29.31 21.80L31.83 21.74L34.23 22.27L36.36 23.34L38.12 24.85L39.42 26.69L40.21 28.72L40.47 30.82L40.23 32.85L39.52 34.69L38.42 36.25L37.03 37.45L35.44 38.24L33.78 38.61L32.15 38.56L30.64 38.13L29.35 37.38L28.33 36.38L27.57 35.09L25.66 36.18L26.52 37.75L27.88 39.21L29.65 40.34L31.71 41.02L33.97 41.18L36.28 40.76L38.50 39.75L40.46 38.17L42.03 36.09L43.08 33.61L43.50 30.86L43.23 28.01L42.24 25.23L40.56 22.70L38.24 20.60L35.41 19.09L32.22 18.28L28.84 18.28L25.47 19.12L22.33 20.79L19.63 23.23L17.55 26.33L16.26 29.92L15.86 33.80L16.42 37.75L17.96 41.52L20.41 44.88L23.67 47.60L27.57 49.49L31.90 50.41L36.41 50.24L40.82 48.97L44.88 46.63L48.31 43.32L50.88 39.20L52.42 34.50L52.78 29.49L51.91 24.45L49.81 19.69L46.57 15.50L42.35 12.17L37.38 9.91L31.92 8.91L26.30 9.25L20.84 10.97L15.87 13.99L11.73 18.18L8.83 23.01Z"/>
    <circle cx="11.33" cy="24.48" r="2.90"/>
    <circle cx="26.61" cy="35.63" r="1.10"/>
    <path d="M51.37 50.52L50.05 51.78L48.70 52.90L47.28 53.92L45.80 54.85L44.26 55.68L42.68 56.41L41.05 57.03L39.38 57.55L37.69 57.95L35.98 58.24L34.25 58.42L32.52 58.48L30.78 58.43L29.06 58.27L27.35 58.00L25.67 57.61L24.01 57.12L22.39 56.52L20.82 55.81L19.30 55.01L17.84 54.11L16.44 53.11L15.11 52.03L13.85 50.86L12.67 49.62L11.58 48.30L10.58 46.91L9.67 45.46L8.86 43.96L8.16 42.41L7.55 40.82L7.05 39.20L6.66 37.54L6.38 35.87L6.20 34.18L6.14 32.49L6.19 30.80L6.35 29.11L6.62 27.45L7.00 25.80L7.48 24.19L8.07 22.61L8.76 21.07L9.55 19.59L10.43 18.16L11.40 16.80L12.46 15.50L13.62 14.25L12.25 12.93L11.01 14.19L9.83 15.56L8.73 17.00L7.73 18.51L6.83 20.10L6.04 21.74L5.35 23.43L4.77 25.17L4.30 26.96L3.95 28.77L3.73 30.61L3.62 32.46L3.63 34.32L3.76 36.18L4.02 38.03L4.40 39.87L4.90 41.69L5.52 43.47L6.26 45.21L7.11 46.91L8.07 48.55L9.15 50.12L10.32 51.63L11.60 53.06L12.97 54.41L14.43 55.67L15.97 56.83L17.59 57.90L19.28 58.86L21.04 59.70L22.85 60.43L24.71 61.05L26.61 61.54L28.54 61.91L30.50 62.15L32.48 62.26L34.46 62.24L36.44 62.09L38.42 61.81L40.37 61.41L42.31 60.87L44.20 60.20L46.06 59.42L47.86 58.50L49.60 57.48L51.28 56.33L52.88 55.08L54.35 53.77Z"/>
    <circle cx="52.86" cy="52.15" r="2.20"/>
    <circle cx="12.94" cy="13.59" r="0.95"/>
    <path d="M6.20 24.73L6.58 23.55L7.00 22.43L7.47 21.33L7.98 20.26L8.54 19.21L9.15 18.18L9.80 17.19L10.49 16.22L11.23 15.29L12.00 14.39L12.82 13.53L13.67 12.71L14.56 11.92L15.48 11.18L16.43 10.47L17.41 9.82L18.42 9.20L19.46 8.63L20.52 8.11L21.60 7.64L22.70 7.21L23.82 6.84L24.95 6.52L26.09 6.24L27.25 6.02L28.41 5.85L29.58 5.73L30.75 5.67L31.93 5.65L33.10 5.69L34.27 5.78L35.43 5.92L36.59 6.12L37.73 6.36L38.86 6.66L39.98 7.00L41.08 7.40L42.16 7.84L43.22 8.33L44.25 8.87L45.26 9.45L46.25 10.08L47.20 10.75L48.12 11.46L49.01 12.21L49.86 12.99L50.68 13.82L51.47 14.70L52.91 13.45L52.13 12.51L51.29 11.58L50.40 10.70L49.48 9.85L48.52 9.04L47.52 8.27L46.48 7.54L45.41 6.86L44.31 6.23L43.18 5.65L42.02 5.11L40.83 4.63L39.63 4.20L38.40 3.82L37.15 3.50L35.89 3.23L34.61 3.02L33.32 2.86L32.02 2.76L30.72 2.72L29.41 2.74L28.11 2.82L26.80 2.96L25.50 3.15L24.20 3.40L22.92 3.71L21.65 4.08L20.39 4.51L19.15 4.99L17.93 5.53L16.73 6.12L15.56 6.77L14.41 7.47L13.30 8.22L12.22 9.03L11.17 9.88L10.16 10.78L9.18 11.73L8.25 12.72L7.36 13.76L6.52 14.83L5.72 15.95L4.98 17.10L4.28 18.28L3.64 19.50L3.04 20.75L2.51 22.03L2.04 23.29Z"/>
    <circle cx="4.12" cy="24.01" r="2.20"/>
    <circle cx="52.19" cy="14.07" r="0.95"/>
    <circle cx="32.0" cy="32.0" r="4.2"/>
  </g>
</svg>
